<?xml version="1.0" encoding="UTF-8"?>
<svg 
id="Layer_2" data-name="Layer 2" xmlns="http://www.w3.org/2000/svg" viewBox="0 0 172.06 92.17">
  <defs>
    <style>
      .cls-1 {
        fill: #fff;
      }

      .cls-1, .cls-2 {
        stroke-width: 0px;
      }

      .cls-2 {
        fill: #d07c29;
      }
    </style>
  </defs>
  <g id="Layer_1-2" data-name="Layer 1">
    <g>
      <g>
        <path class="cls-2" d="m147.88,5.04c1.23-2.96,4.14-5.04,7.54-5.04h-67.18c-.1,0-.19,0-.29,0-4.37.14-7.88,3.75-7.88,8.16s3.66,8.16,8.17,8.16c2.54,0,4.81-1.17,6.31-2.99h-9.36v-5.04h11.21v-.13c0-1.11-.22-2.17-.63-3.13h23.85v3.27h-11.88s-11.34,0-11.34,0c-.04,1.91-.72,3.67-1.85,5.04h13s3.76,0,3.76,0v3.75h-11.6v5.04h11.6v59.66h2.25V22.13h6.06v59.66h5.04V22.13h4.99v59.66h2.26V22.13h10.83v-5.04h-10.83v-3.75h6.43s10.78,0,10.78,0c-1.13-1.37-1.82-3.13-1.85-5.04h-11.34s-11.27,0-11.27,0v-3.27h23.23Zm-28.27,12.06h-6.06v-3.75h6.06v3.75Zm10.03-3.75v3.75h-4.99v-3.75h4.99Z"/>
        <path class="cls-1" d="m88.24,0c-.1,0-.19,0-.29,0h0s.29,0,.29,0Z"/>
        <path class="cls-1" d="m155.71,0h-.29.29Z"/>
        <rect class="cls-2" x="98.71" y="81.79" width="46.01" height="10.37"/>
        <path class="cls-2" d="m163.58,8.17c0,4.5-3.65,8.16-8.16,8.16-2.55,0-4.81-1.17-6.31-2.99h9.36v-5.04h-11.21s0-.09,0-.13c0-1.11.22-2.17.63-3.13,1.23-2.96,4.14-5.04,7.54-5.04.1,0,.19,0,.29,0,4.37.14,7.87,3.75,7.87,8.16Z"/>
      </g>
      <path class="cls-1" d="m16.13,41.12v19.35c0,3.04-.21,5.32-.63,6.85-.42,1.53-1.45,3-3.07,4.43s-3.65,2.14-6.08,2.14c-2.02,0-3.58-.46-4.68-1.39-1.1-.93-1.66-1.97-1.66-3.12,0-.83.29-1.59.87-2.27.58-.68,1.35-1.02,2.31-1.02.85,0,1.56.28,2.16.85.59.56.89,1.29.89,2.18,0,.79-.41,1.68-1.22,2.67,0,.43.49.65,1.47.65,1.57,0,2.36-1,2.36-3v-28.29h-4v-1.45h15.08v1.45h-3.78Z"/>
      <path class="cls-1" d="m41.19,51.6v16.59h2.54v1.31h-3.74c-1.87,0-3.08.05-3.64.14-.56.1-.97.15-1.23.17v-3.65h-.09c-.59,1.13-1.49,2.02-2.68,2.67-1.19.65-2.49.98-3.88.98s-2.47-.27-3.41-.8c-.94-.53-1.53-1.12-1.78-1.77s-.37-1.67-.37-3.08v-11.19h-2.54v-1.38h8.61v11.85c0,1.81.07,3,.22,3.58.15.58.57.87,1.27.87s1.54-.32,2.45-.96c.9-.64,1.5-1.36,1.78-2.18.28-.82.42-1.96.42-3.43v-8.36h-2.96v-1.38h9.03Z"/>
      <path class="cls-1" d="m53.11,51.31v4.92h.09c.36-1.75.94-3.05,1.76-3.9.82-.85,1.72-1.28,2.71-1.28s1.75.34,2.36,1.03c.61.69.91,1.54.91,2.55,0,.86-.23,1.55-.69,2.08-.46.53-1.02.79-1.67.79s-1.21-.24-1.68-.73-.7-1.03-.7-1.62c0-.74.13-1.26.39-1.56.26-.3.39-.49.39-.58,0-.16-.12-.24-.36-.24-.74,0-1.45.73-2.12,2.18-.67,1.46-1.01,3.82-1.01,7.08v6.13h3.31v1.36h-11.7v-1.36h2.31v-15.17h-2.31v-1.38h2.96c1.57,0,2.73-.05,3.47-.14l.8-.14h.78Z"/>
      <path class="cls-1" d="m70.88,51.04v17.1h1.73v1.36h-9.94v-1.36h2.14v-15.17h-2.14v-1.38h2.82c1.47,0,2.7-.09,3.69-.28.99-.19,1.56-.28,1.69-.28Zm-6.47-7.58c0-.9.31-1.67.95-2.3s1.39-.95,2.28-.95,1.68.32,2.32.96c.65.64.97,1.4.97,2.29s-.32,1.66-.97,2.3-1.42.97-2.32.97-1.65-.32-2.28-.97c-.63-.65-.95-1.41-.95-2.3Z"/>
      <path class="cls-1" d="m88.5,51.04v5.54h-1.36c-.83-2.79-2.62-4.18-5.38-4.18-1.04,0-1.94.25-2.69.75-.76.5-1.13,1.11-1.13,1.82,0,.61.29,1.08.88,1.41.58.33,2.08.61,4.48.84,2.4.23,4.1.87,5.1,1.91.99,1.04,1.49,2.37,1.49,3.99,0,2.03-.63,3.7-1.88,5-1.25,1.3-2.95,1.95-5.08,1.95s-3.84-.62-5.2-1.87l-1.4,1.13h-1.02v-6.52h1.33c.96,3.86,3.08,5.78,6.34,5.78,1.17,0,2.18-.27,3.04-.83.85-.55,1.28-1.25,1.28-2.1,0-.59-.23-1.08-.68-1.45-.45-.37-1.53-.65-3.23-.85s-3.1-.45-4.19-.79c-1.1-.33-1.99-.94-2.69-1.82-.7-.88-1.05-2.06-1.05-3.53,0-1.69.59-3.15,1.78-4.36,1.19-1.22,2.82-1.83,4.92-1.83,1.48,0,2.91.42,4.27,1.27l1.05-1.27h1.05Z"/>
      <path class="cls-1" d="m108.74,63.63h1.22c-.24,2.03-1.12,3.61-2.64,4.74-1.52,1.13-3.28,1.69-5.28,1.69-2.7,0-5.02-.91-6.95-2.73-1.94-1.82-2.9-4.01-2.9-6.58s.99-4.87,2.97-6.8c1.98-1.94,4.38-2.91,7.2-2.91,1.97,0,3.67.47,5.08,1.41,1.42.94,2.12,2.17,2.12,3.68,0,.8-.29,1.49-.87,2.06-.58.57-1.34.86-2.29.86-.85,0-1.56-.28-2.16-.85-.59-.56-.89-1.27-.89-2.11,0-1.11.39-1.88,1.18-2.29.31-.18.47-.39.47-.62,0-.25-.25-.46-.76-.62-.5-.16-1.08-.24-1.71-.24-1.11,0-1.96.39-2.56,1.18-.59.79-.89,2.89-.89,6.3s.2,5.91.6,7.05c.4,1.14,1.42,1.7,3.07,1.7,3.02,0,5.02-1.64,5.98-4.92Z"/>
      <path class="cls-1" d="m122.18,70.1c-2.98,0-5.37-.95-7.15-2.85-1.78-1.9-2.67-4.11-2.67-6.64s.91-4.78,2.72-6.68c1.81-1.9,4.18-2.85,7.1-2.85s5.34.94,7.16,2.82c1.82,1.88,2.73,4.12,2.73,6.71s-.9,4.81-2.71,6.68c-1.8,1.87-4.2,2.81-7.18,2.81Zm0-17.88c-.79,0-1.42.19-1.9.57-.48.38-.77.96-.87,1.73-.1.78-.16,2.81-.16,6.08s.05,5.15.14,5.87c.1.73.39,1.32.89,1.77.5.45,1.17.68,2.02.68.68,0,1.28-.2,1.8-.59.51-.39.82-1.1.93-2.14.1-1.03.16-2.78.16-5.24,0-3.84-.15-6.26-.45-7.25-.3-.99-1.15-1.49-2.57-1.49Z"/>
      <path class="cls-1" d="m141.39,51.31v4.92h.09c.36-1.75.94-3.05,1.76-3.9.82-.85,1.72-1.28,2.71-1.28s1.75.34,2.36,1.03c.61.69.91,1.54.91,2.55,0,.86-.23,1.55-.69,2.08-.46.53-1.02.79-1.67.79s-1.21-.24-1.68-.73-.7-1.03-.7-1.62c0-.74.13-1.26.39-1.56.26-.3.39-.49.39-.58,0-.16-.12-.24-.36-.24-.74,0-1.45.73-2.12,2.18-.67,1.46-1.01,3.82-1.01,7.08v6.13h3.31v1.36h-11.7v-1.36h2.31v-15.17h-2.31v-1.38h2.96c1.57,0,2.73-.05,3.47-.14l.8-.14h.78Z"/>
      <path class="cls-1" d="m160.21,51.04v2.82h.09c.99-1.88,2.47-2.82,4.44-2.82s3.57.93,5.07,2.79c1.5,1.86,2.25,4.12,2.25,6.78s-.69,4.91-2.06,6.73c-1.38,1.81-3.06,2.72-5.06,2.72-1.85,0-3.43-.82-4.73-2.47v12.26h2.82v1.36h-11.34v-1.36h2.45v-26.87h-2.45v-1.38h.96c.27,0,.76-.01,1.49-.03.73-.02,1.56-.09,2.49-.2l2.94-.32h.65Zm0,6.97v4.88c0,1.87.35,3.31,1.06,4.32.71,1.01,1.48,1.51,2.32,1.51.47,0,.86-.25,1.15-.75.3-.5.44-1.92.44-4.27v-5.61c0-2.38-.14-3.9-.42-4.59-.28-.68-.69-1.02-1.22-1.02-1.06,0-1.89.52-2.47,1.56-.58,1.04-.87,2.36-.87,3.96Z"/>
    </g>
  </g>
</svg>